<!-- Generator: Adobe Illustrator 22.0.0, SVG Export Plug-In  -->
<svg version="1.1"
	 xmlns="http://www.w3.org/2000/svg" xmlns:xlink="http://www.w3.org/1999/xlink" xmlns:a="http://ns.adobe.com/AdobeSVGViewerExtensions/3.0/"
	 x="0px" y="0px" width="217.496px" height="143.336px" viewBox="0 0 217.496 143.336"
	 style="enable-background:new 0 0 217.496 143.336;" xml:space="preserve">
<style type="text/css">
	.st0{fill-rule:evenodd;clip-rule:evenodd;fill:#1D8A43;}
	.st1{fill-rule:evenodd;clip-rule:evenodd;}
	.st2{fill-rule:evenodd;clip-rule:evenodd;fill:#FFFFFF;}
	.st3{fill-rule:evenodd;clip-rule:evenodd;fill:#EE352E;}
	.st4{fill-rule:evenodd;clip-rule:evenodd;fill:#2C002A;}
	.st5{fill:none;stroke:#C9CDCE;stroke-width:0.4026;stroke-miterlimit:2.613;}
</style>
<defs>
</defs>
<g>
	<rect x="0.201" y="81.565" class="st0" width="217.093" height="61.573"/>
	<rect x="0.201" y="0.201" class="st1" width="217.093" height="58.228"/>
	<rect x="0.201" y="47.984" class="st2" width="217.093" height="48.379"/>
	<rect x="0.201" y="54.144" class="st3" width="216.538" height="36.058"/>
	<polygon class="st2" points="0.201,47.984 217.295,47.984 217.295,96.363 0.201,96.363 0.201,90.202 216.739,90.202 
		216.739,54.144 0.201,54.144 	"/>
	<path class="st2" d="M69.894,10.163c1.634,5.588,5.825,31.268,15.269,28.811l56.92,94.197l2.469-1.89L87.845,37.568
		C94.771,31.364,73.43,13.88,69.894,10.163"/>
	<path class="st2" d="M147.6,10.163c-1.632,5.588-5.82,31.268-15.269,28.811l-56.917,94.197l-2.469-1.89l56.708-93.714
		C122.726,31.364,144.074,13.88,147.6,10.163"/>
	<path class="st3" d="M108.485,19.032c22.129,15.521,29.957,38.868,29.657,57.85c-0.313,18.988-9.635,45.242-29.657,56.111
		c-20.197-11.417-30.05-38.006-29.714-58.215C79.069,56.952,87.923,32.612,108.485,19.032"/>
	<path class="st2" d="M108.504,68.691c2.577,0,4.673,3.345,4.673,7.465c0,4.121-2.097,7.466-4.673,7.466
		c-2.585,0-4.674-3.345-4.674-7.466C103.83,72.036,105.919,68.691,108.504,68.691"/>
	<path class="st2" d="M110.275,20.883L110.275,20.883c3.657,2.277,6.386,11.274,6.386,22.019c0,10.748-2.729,19.741-6.386,22.014
		V20.883z M106.204,64.609c-3.436-2.689-5.95-11.395-5.95-21.707c0-10.316,2.514-19.017,5.95-21.71V64.609z"/>
	<path class="st2" d="M110.275,86.875L110.275,86.875c3.657,2.273,6.386,11.269,6.386,22.015c0,10.751-2.729,19.742-6.386,22.018
		V86.875z M106.204,130.604c-3.436-2.697-5.95-11.394-5.95-21.714c0-10.313,2.514-19.015,5.95-21.706V130.604z"/>
	<path class="st4" d="M83.927,50.11c6.072,4.062,10.378,14.195,10.378,26.049c0,11.906-4.345,22.076-10.466,26.098
		c-3.527-9.214-5.211-18.915-5.067-27.48C78.902,67.283,80.539,58.632,83.927,50.11"/>
	<path class="st4" d="M133.198,102.071c-5.974-4.138-10.193-14.185-10.193-25.915c0-11.761,4.239-21.828,10.239-25.948
		c3.575,9.042,5.03,18.283,4.898,26.675C138.011,84.588,136.406,93.491,133.198,102.071"/>
	<path class="st2" d="M69.894,10.163c1.634,5.588,5.825,31.268,15.269,28.811l56.92,94.197l2.469-1.89L87.845,37.568
		C94.771,31.364,73.43,13.88,69.894,10.163"/>
	<path class="st2" d="M147.6,10.163c-1.632,5.588-5.82,31.268-15.269,28.811l-56.917,94.197l-2.469-1.89l56.708-93.714
		C122.726,31.364,144.074,13.88,147.6,10.163"/>
	<path class="st3" d="M108.485,19.032c22.129,15.521,29.957,38.868,29.657,57.85c-0.313,18.988-9.635,45.242-29.657,56.111
		c-20.197-11.417-30.05-38.006-29.714-58.215C79.069,56.952,87.923,32.612,108.485,19.032"/>
	<path class="st2" d="M108.504,68.691c2.577,0,4.673,3.345,4.673,7.465c0,4.121-2.097,7.466-4.673,7.466
		c-2.585,0-4.674-3.345-4.674-7.466C103.83,72.036,105.919,68.691,108.504,68.691"/>
	<path class="st2" d="M110.275,20.883L110.275,20.883c3.657,2.277,6.386,11.274,6.386,22.019c0,10.748-2.729,19.741-6.386,22.014
		V20.883z M106.204,64.609c-3.436-2.689-5.95-11.395-5.95-21.707c0-10.316,2.514-19.017,5.95-21.71V64.609z"/>
	<path class="st2" d="M110.275,86.875L110.275,86.875c3.657,2.273,6.386,11.269,6.386,22.015c0,10.751-2.729,19.742-6.386,22.018
		V86.875z M106.204,130.604c-3.436-2.697-5.95-11.394-5.95-21.714c0-10.313,2.514-19.015,5.95-21.706V130.604z"/>
	<path class="st4" d="M83.927,50.11c6.072,4.062,10.378,14.195,10.378,26.049c0,11.906-4.345,22.076-10.466,26.098
		c-3.527-9.214-5.211-18.915-5.067-27.48C78.902,67.283,80.539,58.632,83.927,50.11"/>
	<path class="st4" d="M133.198,102.071c-5.974-4.138-10.193-14.185-10.193-25.915c0-11.761,4.239-21.828,10.239-25.948
		c3.575,9.042,5.03,18.283,4.898,26.675C138.011,84.588,136.406,93.491,133.198,102.071"/>
	<rect x="0.201" y="0.201" class="st5" width="217.093" height="142.933"/>
</g>
</svg>